# xmcd CD database file
#
# Track frame offsets:
#	150
#	18395
#	33135
#	44050
#	52107
#	66445
#	82215
#	102200
#	110737
#	125215
#	135537
#	146950
#	161862
#	187722
#	198262
#	211084
#	222675
#	238187
#	248485
#	267352
#	282267
#	291167
#	304842
#
# Disc length: 4170 seconds
#
# Revision: 4
# Processed by: cddbd v1.5.2PL0 Copyright (c) Steve Scherf et al.
# Submitted via: CDex 1.51
#
DISCID=72104817
DTITLE=Marty Robbins - Gunfighter Ballads and Trail Songs/More Gunfighter Ballads and Trail Songs
DYEAR=1996
DGENRE=Country
TTITLE0=Big Iron
TTITLE1=Cool Water
TTITLE2=Billy The Kid
TTITLE3=A Hundred And Sixty Acres
TTITLE4=They're Hanging Me Tonight
TTITLE5=The Strawberry Roan
TTITLE6=El Paso
TTITLE7=In The Valley
TTITLE8=The Master's Call
TTITLE9=Running Gun
TTITLE10=The Little Green Valley
TTITLE11=Utah Carol
TTITLE12=San Angelo
TTITLE13=Prairie Fire
TTITLE14=The streets Of Laredo
TTITLE15=Song Of The Bandit
TTITLE16=I've Got No Use For The Women
TTITLE17=Five Brothers
TTITLE18=Little Joe The Wrangler
TTITLE19=Ride, Cowboy Ride
TTITLE20=This Peaceful Sod
TTITLE21=She Was Young And She Was Pretty
TTITLE22=My Love
EXTD=YEAR: 1996
EXTT0=
EXTT1=
EXTT2=
EXTT3=
EXTT4=
EXTT5=
EXTT6=
EXTT7=
EXTT8=
EXTT9=
EXTT10=
EXTT11=
EXTT12=
EXTT13=
EXTT14=
EXTT15=
EXTT16=
EXTT17=
EXTT18=
EXTT19=
EXTT20=
EXTT21=
EXTT22=
PLAYORDER=
